<svg xmlns="http://www.w3.org/2000/svg" width="750" height="265" viewBox="0 0 562.5 198.75"><defs><clipPath id="a"><path d="M.105 4H145v194.5H.105Zm0 0"/></clipPath><clipPath id="c"><path d="M27.414 18.559h72.223V128.57H27.414Zm0 0"/></clipPath><clipPath id="d"><path d="M97.387 128.313c.43-6.458 1.945-13.051 1.965-19.348.023-7.195-.02-13.23-1.422-20.008-2.106-10.156-6.582-23.969-11.442-31.797-5.367-8.644-12.332-17.652-19.562-23.3-4.457-3.477-7.793-5.758-12.86-8.782-2.539-1.52-11.472-6.148-15.105-6.52-3.246 2.833-6.414 10.786-8.176 15.555-3.762 10.176-3.73 20.227-1.816 30.914.836 4.672-.434 2.575 7.426 4.938 6.468 1.945 11.46 3.785 17.226 6.691 10.11 5.094 19.883 13.98 26.406 21.09 3.82 4.16 6.848 8.742 9.88 14.09 1.124 1.988 3.1 5.348 4.058 7.738 1.031 2.578 2.015 6.645 3.422 8.739m0 0"/></clipPath><clipPath id="f"><path d="M.668.559h71.91v109.754H.668Zm0 0"/></clipPath><clipPath id="g"><path d="M70.387 110.313c.43-6.458 1.945-13.051 1.965-19.348.023-7.195-.02-13.23-1.422-20.008-2.106-10.156-6.582-23.969-11.442-31.797-5.367-8.644-12.332-17.652-19.562-23.3-4.457-3.477-7.793-5.758-12.86-8.782C24.527 5.558 15.594.93 11.961.558 8.715 3.392 5.547 11.345 3.785 16.114.023 26.29.055 36.34 1.97 47.027c.836 4.672-.434 2.575 7.426 4.938 6.468 1.945 11.46 3.785 17.226 6.691 10.11 5.094 19.883 13.98 26.308 21.09 3.82 4.16 6.848 8.742 9.88 14.09 1.124 1.988 3.1 5.348 4.058 7.738 1.031 2.578 2.015 6.645 3.422 8.739m0 0"/></clipPath><clipPath id="e"><path d="M0 0h73v111H0z"/></clipPath><clipPath id="h"><path d="M1.938 69.629h90.91V194.5H1.938Zm0 0"/></clipPath><clipPath id="i"><path d="M91.117 194.496c3.172-6.117.156-41.344-1.207-49.691-2.742-16.805-6.789-25.325-16.055-38.067C62.348 90.91 45.012 79.66 25.325 73.836c-5.516-1.633-17.052-3.805-23.282-3.879C1.34 77.078 4.332 86.34 6.98 91.484c6.317 12.254 18.497 18.559 31.04 22.45 13.136 4.07 24.75 9.355 34.238 19.168 20.914 21.62 17.414 33.05 18.86 61.394m0 0"/></clipPath><clipPath id="k"><path d="M.938.828h90.69V125.5H.939Zm0 0"/></clipPath><clipPath id="l"><path d="M90.117 125.496c3.172-6.117.156-41.344-1.207-49.691C86.168 59 82.121 50.48 72.855 37.738 61.348 21.91 44.012 10.66 24.325 4.836 18.808 3.203 7.272 1.03 1.042.957.34 8.078 3.332 17.34 5.98 22.484c6.317 12.254 18.497 18.559 31.04 22.45 13.136 4.07 24.75 9.355 34.238 19.168 20.914 21.62 17.414 33.05 18.86 61.394m0 0"/></clipPath><clipPath id="j"><path d="M0 0h92v126H0z"/></clipPath><clipPath id="m"><path d="M90 19.488h48v95.719H90Zm0 0"/></clipPath><clipPath id="n"><path d="M105.973 115.113c.359-.351 8.113-20.281 9.144-22.754 8.516-20.468 20.63-32.863 22.645-58.074.61-7.59-.246-7.707-1.016-12.87-.351-2.376-.305-.954.262-1.536-.172-.234.281-.645-1.66-.168-.418.105-1.262.457-1.707.598l-10.996 3.683c-12.094 4.695-26.118 14.485-32.63 25.242l7.602 12.953c2.332 4.555 4.383 9.555 5.82 15.028 1.52 5.789 2.598 11.691 2.965 17.918.555 9.398-.613 15.11-.43 19.98m0 0"/></clipPath><clipPath id="p"><path d="M0 .488h48v95.64H0Zm0 0"/></clipPath><clipPath id="q"><path d="M15.973 96.113c.359-.351 8.113-20.281 9.144-22.754 8.516-20.468 20.63-32.863 22.645-58.074.61-7.59-.246-7.707-1.016-12.87-.351-2.376-.305-.954.262-1.536-.172-.234.281-.645-1.66-.168-.418.105-1.262.457-1.707.598L32.645 4.992C20.55 9.688 6.527 19.477.015 30.234l7.602 12.953c2.332 4.555 4.383 9.555 5.82 15.028 1.52 5.789 2.598 11.691 2.965 17.918.555 9.398-.613 15.11-.43 19.98m0 0"/></clipPath><clipPath id="o"><path d="M0 0h48v97H0z"/></clipPath><clipPath id="r"><path d="M14.43 116.785H84v70.422H14.43Zm0 0"/></clipPath><clipPath id="s"><path d="M83.719 187.164c.941-22.004-12.203-45.168-30.114-57.101-10.73-7.153-25.902-12.711-39.136-13.278-.543 7.602 4.55 19.094 9.222 25.11 4.864 6.257 11.387 10.867 19.758 15.21l11.2 6.063c4.09 2.246 7.527 4.113 11.183 6.516 6.805 4.464 12.29 9.304 16.535 16.074Zm0 0"/></clipPath><clipPath id="u"><path d="M.43.785H70v70.422H.43Zm0 0"/></clipPath><clipPath id="v"><path d="M69.719 71.164c.941-22.004-12.203-45.168-30.114-57.101C28.875 6.91 13.703 1.351.47.784c-.543 7.602 4.55 19.094 9.222 25.11 4.864 6.257 11.387 10.867 19.758 15.21l11.2 6.063c4.09 2.246 7.527 4.113 11.183 6.516 6.805 4.464 12.29 9.304 16.535 16.074Zm0 0"/></clipPath><clipPath id="t"><path d="M0 0h70v72H0z"/></clipPath><clipPath id="w"><path d="M98.91 19.633h45.676v168.969H98.91Zm0 0"/></clipPath><clipPath id="x"><path d="M106 114.871c.066 3.274-2.566 12.555-3.39 16.582-1.2 5.875-1.801 12.063-2.395 18.16-.504 5.211-2.524 36.086-.238 38.809 1.027-1.477.187-10.54.253-13.238.543-22.508 7.036-33.551 17.805-51.07 7.649-12.446 14.383-19.305 20.504-34.884 2.645-6.734 4.496-14.218 5.453-22.164 1.465-12.171.164-25.34-3.375-37-1.05-3.472-2.82-7.398-3.64-10.253-.567.585-.614-.836-.262 1.535.77 5.156 1.62 5.27 1.015 12.843-2.011 25.168-14.105 37.54-22.605 57.97-1.027 2.468-8.77 22.359-9.125 22.71m0 0"/></clipPath><clipPath id="z"><path d="M.91.73h45.676v168.747H.91Zm0 0"/></clipPath><clipPath id="A"><path d="M8 95.871c.066 3.274-2.566 12.555-3.39 16.582-1.2 5.875-1.801 12.063-2.395 18.16-.504 5.211-2.524 36.086-.238 38.809 1.027-1.477.187-10.54.253-13.238.543-22.508 7.036-33.551 17.805-51.07C27.684 92.667 34.418 85.808 40.54 70.23c2.645-6.734 4.496-14.218 5.453-22.164 1.465-12.171.164-25.34-3.375-37-1.05-3.472-2.82-7.398-3.64-10.253-.567.585-.614-.836-.262 1.535.77 5.156 1.62 5.27 1.015 12.843-2.011 25.168-14.105 37.54-22.605 57.97C16.098 75.628 8.355 95.52 8 95.87m0 0"/></clipPath><clipPath id="y"><path d="M0 0h47v170H0z"/></clipPath><clipPath id="B"><path d="M105.79 102.77H143v78.668h-37.21Zm0 0"/></clipPath><clipPath id="C"><path d="M105.805 181.309c.906-.575 2.09-2.743 3.078-3.989 1.148-1.441 2.328-2.554 3.52-3.968 1.214-1.442 1.913-2.106 3.644-3.836.594-.59 1.078-1.188 1.754-1.793.828-.739 1.27-.985 2.14-1.793 11.41-10.555 20.871-17.399 22.797-36.965.578-5.852-.718-20.328-2.953-24.852-.922-1.87-.265-.644-1.031-1.343-2.02 14.449-12.395 27.3-18.75 36.859-6.531 9.82-14.625 26.43-14.2 41.68m0 0"/></clipPath><clipPath id="E"><path d="M.79.77h37.175v78.668H.789Zm0 0"/></clipPath><clipPath id="F"><path d="M.805 79.309c.906-.575 2.09-2.743 3.078-3.989 1.148-1.441 2.328-2.554 3.52-3.968 1.214-1.442 1.913-2.106 3.644-3.836.594-.59 1.078-1.188 1.754-1.793.828-.739 1.27-.985 2.14-1.793 11.41-10.555 20.871-17.399 22.797-36.965.578-5.852-.718-20.328-2.953-24.852-.922-1.87-.265-.644-1.031-1.343-2.02 14.449-12.395 27.3-18.75 36.859-6.531 9.82-14.625 26.43-14.2 41.68m0 0"/></clipPath><clipPath id="D"><path d="M0 0h38v80H0z"/></clipPath><clipPath id="G"><path d="M68.2.16h34.304v34.168H68.199Zm0 0"/></clipPath><clipPath id="H"><path d="M83.207.371c-23.328 3.77-17.625 36.707 4.523 33.621 8.899-1.238 15.81-9.207 14.48-19.234C101.103 6.355 93.005-1.215 83.208.37m0 0"/></clipPath><clipPath id="J"><path d="M.2.16h34.304v34.168H.199Zm0 0"/></clipPath><clipPath id="K"><path d="M15.207.371C-8.121 4.141-2.418 37.078 19.73 33.992c8.899-1.238 15.81-9.207 14.48-19.234C33.103 6.355 25.005-1.215 15.208.37m0 0"/></clipPath><clipPath id="I"><path d="M0 0h35v35H0z"/></clipPath><clipPath id="L"><path d="M.105 40.078h17.399v17.54H.105Zm0 0"/></clipPath><clipPath id="M"><path d="M6.824 40.367C-4.28 42.813-.629 59.75 10.54 57.328c4.18-.906 7.727-4.937 6.727-10.41-.79-4.34-5.325-7.676-10.442-6.55m0 0"/></clipPath><clipPath id="O"><path d="M.105.105h17.399v17.512H.105Zm0 0"/></clipPath><clipPath id="P"><path d="M6.824.367C-4.28 2.813-.629 19.75 10.54 17.328c4.18-.906 7.727-4.937 6.727-10.41-.79-4.34-5.325-7.676-10.442-6.55m0 0"/></clipPath><clipPath id="N"><path d="M0 0h18v18H0z"/></clipPath><clipPath id="Q"><path d="M104.195 2.578h6.75v6.57h-6.75Zm0 0"/></clipPath><clipPath id="R"><path d="M109.633 2.684c-6.649-.946-6.442 4.761-3.418 6.16 1.324.613 3.07.328 4.023-1.094 1.528-2.27.176-3.508-.605-5.066m0 0"/></clipPath><clipPath id="T"><path d="M.195.578h6.75v6.57H.195Zm0 0"/></clipPath><clipPath id="U"><path d="M5.633.684C-1.016-.262-.81 5.445 2.215 6.844c1.324.613 3.07.328 4.023-1.094 1.528-2.27.176-3.508-.605-5.066m0 0"/></clipPath><clipPath id="S"><path d="M0 0h7v8H0z"/></clipPath><clipPath id="b"><path d="M0 0h145v195H0z"/></clipPath><clipPath id="V"><path d="M0 0h370v60H0z"/></clipPath><clipPath id="X"><path d="M236 80h21v29.816h-21Zm0 0"/></clipPath><clipPath id="W"><path d="M0 0h366v110H0z"/></clipPath></defs><g clip-path="url(#a)"><g clip-path="url(#b)" transform="translate(0 4)"><g clip-path="url(#c)"><g clip-path="url(#d)"><g clip-path="url(#e)" transform="translate(27 18)"><g clip-path="url(#f)"><g clip-path="url(#g)"><path fill="#fff" d="M.695.559h71.66v109.73H.695Zm0 0"/></g></g></g></g></g><g clip-path="url(#h)"><g clip-path="url(#i)"><g clip-path="url(#j)" transform="translate(1 69)"><g clip-path="url(#k)"><g clip-path="url(#l)"><path fill="#fff" d="M.938.957H91.52V125.34H.938Zm0 0"/></g></g></g></g></g><g clip-path="url(#m)"><g clip-path="url(#n)"><g clip-path="url(#o)" transform="translate(90 19)"><g clip-path="url(#p)"><g clip-path="url(#q)"><path fill="#fff" d="M.016.488h47.953v95.719H.016Zm0 0"/></g></g></g></g></g><g clip-path="url(#r)"><g clip-path="url(#s)"><g clip-path="url(#t)" transform="translate(14 116)"><g clip-path="url(#u)"><g clip-path="url(#v)"><path fill="#fff" d="M.43.785h69.336v70.422H.43Zm0 0"/></g></g></g></g></g><g clip-path="url(#w)"><g clip-path="url(#x)"><g clip-path="url(#y)" transform="translate(98 19)"><g clip-path="url(#z)"><g clip-path="url(#A)"><path fill="#fff" d="M.91.813h45.676v168.609H.91Zm0 0"/></g></g></g></g></g><g clip-path="url(#B)"><g clip-path="url(#C)"><g clip-path="url(#D)" transform="translate(105 102)"><g clip-path="url(#E)"><g clip-path="url(#F)"><path fill="#fff" d="M.79.77h37.085v78.523H.789Zm0 0"/></g></g></g></g></g><g clip-path="url(#G)"><g clip-path="url(#H)"><g clip-path="url(#I)" transform="translate(68)"><g clip-path="url(#J)"><g clip-path="url(#K)"><path fill="#fff" d="M.2.16h34.17v34.035H.2Zm0 0"/></g></g></g></g></g><g clip-path="url(#L)"><g clip-path="url(#M)"><g clip-path="url(#N)" transform="translate(0 40)"><g clip-path="url(#O)"><g clip-path="url(#P)"><path fill="#fff" d="M.105.148h17.333v17.399H.105Zm0 0"/></g></g></g></g></g><g clip-path="url(#Q)"><g clip-path="url(#R)"><g clip-path="url(#S)" transform="translate(104 2)"><g clip-path="url(#T)"><g clip-path="url(#U)"><path fill="#fff" d="M.195.578h6.727v6.57H.195Zm0 0"/></g></g></g></g></g></g></g><g fill="#fff" clip-path="url(#V)" transform="translate(155 9)"><path d="M27.366 45.49h-1.594q-2.799 0-5.094-.078a274 274 0 0 1-4.11-.172q-3.626-.186-6.327-.86-2.753-.684-4.235-2.312-1.593-1.7-1.593-6.328v-1.203h11.625v.672q-.001.925.578 1.453.576.579 2.265.766 1.733.298 6.125.297h1.344q2.028 0 3.469-.047a28 28 0 0 0 2.375-.157q1.779-.139 2.656-.578.812-.375.813-1.78v-.282c0-.813-.243-1.375-.72-1.688q-.876-.48-2.89-.687-1.065-.095-2.687-.14-1.612-.048-3.735-.048-3.188 0-5.75-.062a62 62 0 0 1-4.515-.281q-3.973-.373-6.282-1.204-2.361-.856-3.375-2.703-1.064-1.78-1.062-5.922v-.578q0-4.294 1.734-6.234 1.64-1.828 5.594-2.64c1.32-.259 2.906-.454 4.75-.579a91 91 0 0 1 6.406-.203h2.016q2.654 0 4.875.078 2.217.066 4 .172 3.528.19 6.125.86 2.655.673 4.11 2.265 1.483 1.642 1.484 6.172v.781H34.506v-.39q-.002-1.06-.578-1.5c-.418-.32-1.172-.547-2.265-.672a28 28 0 0 0-2.079-.14 80 80 0 0 0-2.937-.048h-3.14q-.862 0-1.829.047-.971.048-1.75.078-.768.017-1.344.11c-.804.093-1.445.257-1.921.484q-.83.393-.829 1.687v.297q0 .769.297 1.203c.188.262.57.47 1.157.625q.435.096 1.109.204.668.093 1.594.14 1.827.14 6.656.14 2.936.001 5.297.079a57 57 0 0 1 4.203.25q1.828.207 3.328.5c1 .187 1.899.43 2.703.719q2.355.909 3.516 2.75c.738 1.218 1.11 3.132 1.11 5.734v.672c0 1.512-.165 2.898-.485 4.156q-.534 1.97-2.11 3.219c-1.062.875-2.82 1.586-5.265 2.125q-1.782.392-4.688.578-2.895.201-6.89.203m70.093-33.187V45.1H85.88V32.709H65.568v12.39H54.006V12.304h11.562v11.672h20.313V12.303Zm30.388 33.187h-1.11q-4.142-.002-7.312-.25-3.158-.233-5.266-.719-4.3-.966-6.328-3.421-2.08-2.42-2.078-8.204V12.303h11.578v17.562q-.001 2.8.578 4.188c.32.906 1.094 1.554 2.313 1.937q1.748.626 6.718.625h.766q4.201.001 6.078-.484 1.874-.434 2.703-1.688.764-1.201.766-4.578V12.303h11.578v20.593q0 4.831-1.453 7.375-1.442 2.613-5.484 3.907-4.065 1.312-14.047 1.312m59.433-.39h-30.14V12.303h29.125q3.515.002 5.687.437c1.414.313 2.641.746 3.672 1.297q1.5.767 2.453 2.5.969 1.705.97 4.594c0 1.73-.306 3.14-.907 4.234q-.925 1.642-2.86 2.61v.093q4.875 1.689 4.875 7.672-.001 5.017-2.984 7.188-3.047 2.173-9.89 2.172m-18.718-7.532h17.078c1.219 0 2.07-.238 2.562-.718.477-.446.72-1.172.72-2.172 0-1.032-.243-1.754-.72-2.172q-.83-.67-2.562-.672h-17.078Zm0-12.578h16.843q1.342.001 1.97-.625c.413-.426.624-1.101.624-2.031q-.001-1.452-.625-2.078-.627-.623-1.969-.625h-16.843Zm81.716-12.687V45.1H238.7V32.709h-20.313v12.39h-11.562V12.304h11.562v11.672H238.7V12.303Zm35.934 0L304.98 45.1h-12.344l-2.937-5.688h-20.032l-2.89 5.688h-12.203l18.578-32.797Zm-12.687 19.53h12.25l-6.063-11.812h-.203Zm90.884-19.53V45.1h-11.141V23.006h-.141L341.159 45.1h-8.781l-11.719-22.094h-.234V45.1h-11.14V12.303h15.859l11.828 22.047h.14l11.72-22.047Zm0 0"/></g><g clip-path="url(#W)" transform="translate(160 69)"><path fill="#fff" d="M22.025 23.252V16.55q0-4.172-1.078-6.14h6.375q-1.078 1.968-1.078 6.14v17.61q0 4.171 1.078 6.14h-6.375q1.078-1.969 1.078-6.14v-9.032H8.165v9.032q0 4.171 1.079 6.14H2.869q1.078-1.969 1.078-6.14V16.55q0-4.172-1.078-6.14h6.375q-1.078 1.968-1.078 6.14v6.703Zm11.761 10.907v-17.61q0-4.547-1.031-6.14h6.28q-1.03 1.593-1.03 6.14v17.61q0 4.546 1.03 6.14h-6.28q1.03-1.594 1.03-6.14m20.086-3.047h-10.39l2.156-2.532h10.437ZM72.704 40.3h-6.266q1.032-1.594 1.032-6.141V12.752h-6.235q-1.968 0-3.328 1.032l.938-3.375h23.562q-.937 2.343-5.578 2.343h-5.156V34.16q0 4.546 1.031 6.14m17.811-14.47v12.594h5.375q5.11 0 8.11-2.672l-.845 4.313q-3.187.234-4.5.234h-13.53q1.17-1.828 1.171-6.14v-17.61q0-4.547-1.031-6.14h16.344l.187 3.609q-2.016-1.734-6.937-1.734h-4.344v11.203q7.39 0 11-.328-.564.938-1.719 1.53-1.144.58-2.812.813-1.657.235-2.688.282c-.68.03-1.547.046-2.61.046ZM130 10.034l-.188 5.906h-.141q-.705-1.265-1.39-2.031-.674-.78-2.297-1.485-1.611-.703-3.86-.703-3.516 0-5.906 1.828c-1.586 1.219-2.703 2.75-3.36 4.594q-.984 2.766-.984 6.281-.002 5.752 2.938 9.406 2.953 3.657 8.484 3.657 5.156 0 8.11-3.235v.282q-.001 2.015-2.891 4.265-2.876 2.25-7.797 2.25-6.268 0-10.016-4.36-3.75-4.356-3.703-10.952 0-7.312 4.047-11.688 4.06-4.39 11.125-4.39 1.313 0 3.75.187 2.437.188 4.078.188m24.731 13.218V16.55q0-4.172-1.078-6.14h6.375q-1.078 1.968-1.078 6.14v17.61q0 4.171 1.078 6.14h-6.375q1.078-1.969 1.078-6.14v-9.032h-13.86v9.032q0 4.171 1.079 6.14h-6.375q1.077-1.969 1.078-6.14V16.55q0-4.172-1.078-6.14h6.375q-1.079 1.968-1.078 6.14v6.703Zm41.643 0V16.55q0-4.172-1.078-6.14h6.375q-1.078 1.968-1.078 6.14v17.61q0 4.171 1.078 6.14h-6.375q1.078-1.969 1.078-6.14v-9.032h-13.86v9.032q0 4.171 1.079 6.14h-6.375q1.078-1.969 1.078-6.14V16.55q0-4.172-1.078-6.14h6.375q-1.079 1.968-1.078 6.14v6.703Zm33.495 2.813q0-2.532-.469-4.875a20.2 20.2 0 0 0-1.5-4.563q-1.032-2.232-3.03-3.562-1.986-1.343-4.657-1.344c-3.18 0-5.578 1.246-7.203 3.734q-2.438 3.72-2.438 9.204 0 2.53.469 4.875a20.5 20.5 0 0 0 1.5 4.562q1.03 2.22 3.016 3.563c1.32.886 2.875 1.328 4.656 1.328q4.781 0 7.219-3.72 2.437-3.73 2.437-9.202m4.875-1.313q0 6.973-3.937 11.64-3.938 4.658-10.97 4.657-7.017 0-10.577-4.219-3.563-4.217-3.563-10.859 0-6.983 3.938-11.64c2.625-3.114 6.273-4.672 10.953-4.672q7.031 0 10.594 4.218 3.562 4.22 3.562 10.875m2.712 14.657v-4.97q.75 1.033 1.266 1.626.516.58 1.547 1.422a7 7 0 0 0 2.406 1.265q1.39.422 3.125.422 2.749 0 4.484-1.547t1.735-4.312q-.001-2.156-1.39-3.766a11.2 11.2 0 0 0-3.345-2.64 195 195 0 0 1-3.922-2.125 11.3 11.3 0 0 1-3.359-2.86q-1.376-1.764-1.375-4.156 0-3.891 2.719-6 2.717-2.11 6.687-2.11 1.219 0 3.625.141 2.422.14 3.594.14v4.36q-1.594-1.64-2.89-2.203-1.283-.562-3.626-.562-2.565 0-4.14 1.312-1.564 1.312-1.563 3.844-.001 1.97 1.375 3.453 1.388 1.469 3.344 2.5 1.969 1.032 3.938 2.14a10.8 10.8 0 0 1 3.343 2.891q1.39 1.798 1.391 4.281 0 4.126-3.328 6.61-3.33 2.484-7.578 2.484-4.079 0-8.063-1.64m24.735-5.25v-17.61q0-4.547-1.032-6.14 1.875 0 5.532-.235c2.437-.156 4.257-.234 5.468-.234q4.313.001 6.516 2.14 2.203 2.127 2.203 5.735 0 4.125-2.39 6.75t-6.516 2.625q-2.424 0-4.063-1.031a39 39 0 0 0 2.266-.344q.81-.17 2.094-.688 1.295-.515 1.968-1.265.686-.75 1.22-2.172.544-1.437.546-3.406 0-3.094-1.266-4.782-1.265-1.687-4.578-1.687h-3.75v22.344q0 4.265 1.22 6.14h-6.47q1.032-1.547 1.032-6.14m23.983 0v-17.61q0-4.547-1.03-6.14h6.28q-1.03 1.593-1.03 6.14v17.61q0 4.546 1.03 6.14h-6.28q1.03-1.594 1.03-6.14m23.32 6.141h-6.266q1.032-1.594 1.032-6.141V12.752h-6.235q-1.969 0-3.328 1.032l.938-3.375h23.562q-.937 2.343-5.578 2.343h-5.156V34.16q0 4.546 1.031 6.14m25.391-14.985-3.282-10.031q-.327-1.125-.797-1.125-.328 0-.796 1.125l-4.063 10.03Zm10.968 14.984h-5.062l-5.11-13.11h-10.53q-4.125 8.33-4.126 11.329 0 .843.14 1.781h-5.859l1.032-1.312q2.202-2.764 7.265-13.672 5.063-10.922 5.063-13.64l.031-1.266h5.531q.234.795 1.235 3.937a491 491 0 0 0 1.406 4.313c.27.78.707 2.09 1.312 3.921a108 108 0 0 0 1.532 4.313q.608 1.565 1.515 3.828a88 88 0 0 0 1.813 4.172 63 63 0 0 0 1.875 3.672Zm3.84-10.64v-13.11q0-4.547-1.031-6.14h6.28q-1.03 1.593-1.03 6.14v21.875h3.546q4.64 0 7.36-2.672l-.89 4.407q-1.407.14-2.86.14h-12.969q1.594-2.063 1.594-10.64M20.421 85.875h3.922q-3.736 5.66-4.906 7.188 2.779 3.456 4.906 5.25h-5.172l-1.89-2.625a37 37 0 0 1-1.922 1.531q-.75.55-2.203 1.125-1.44.593-2.89.594-3.112 0-5.11-1.688-2.002-1.688-2-4.734-.001-4.56 5.687-8.484-2.938-3.684-2.937-6.157 0-2.39 1.828-3.797c1.219-.945 2.648-1.421 4.297-1.421q2.186 0 3.828 1.062c1.101.711 1.656 1.773 1.656 3.188q0 .937-.469 1.875-.47.938-1.437 1.859a26 26 0 0 1-1.563 1.422q-.61.486-1.671 1.265l6.078 8.516q2.203-2.544 2.203-4.625 0-.311-.235-1.344m-4 8.64-6.75-9.218q-3.375 2.035-3.375 5.797 0 2.361 1.422 3.89 1.435 1.534 3.766 1.532 2.624.002 4.937-2m-4.78-12.327q2.732-2.157 2.734-4.781c0-.938-.25-1.696-.75-2.282q-.74-.89-2.11-.89-1.019.001-1.75.734-.72.72-.719 1.781c0 .594.164 1.274.5 2.032q.514 1.14.829 1.609c.207.312.628.914 1.265 1.797m36.513 16.124h-5.266q.874-1.326.875-5.14V75.25h-5.219c-1.105 0-2.031.29-2.781.86l.781-2.813h19.719c-.523 1.305-2.074 1.953-4.656 1.953h-4.313v17.922q-.001 3.816.86 5.14m16.036-11.296h-7.016q-.157 1.5-.156 2.203 0 3.017 1.422 5.078 1.436 2.063 4.297 2.063c.945 0 1.859-.172 2.734-.516q1.313-.515 2.016-1.328v.422q-.002 1.535-1.985 2.765c-1.324.82-2.73 1.235-4.218 1.235-2.43 0-4.297-.91-5.61-2.735-1.305-1.832-1.953-4.046-1.953-6.64q0-3.997 2.156-6.688c1.438-1.789 3.446-2.687 6.032-2.687q2.718 0 4.359 1.5c1.101.992 1.656 2.168 1.656 3.531q-.001.86-.5 1.281-.487.41-1.125.47-.627.046-2.11.046m-6.781-1.172h4.03q.904.001 1.298-.016c.257-.02.547-.07.859-.156.32-.094.535-.242.64-.453q.155-.312.157-.875c0-.781-.274-1.469-.813-2.062-.53-.602-1.257-.907-2.171-.907q-2.989.001-4 4.47m16.349-2.079q0 1.3.844 2.266a7 7 0 0 0 2.031 1.578q1.201.627 2.39 1.312 1.203.69 2.048 1.813.843 1.112.843 2.593-.001 2.625-2.093 4.125-2.097 1.484-4.844 1.485c-1.387 0-2.84-.29-4.36-.86q-.656-.233-.656-.859 0-.514.094-1.484.093-.984.094-1.39 1.06 1.686 2.015 2.437.966.75 2.782.75 3.67 0 3.671-3.344 0-1.279-.796-2.235a6.9 6.9 0 0 0-1.938-1.609Q74.737 89.69 73.6 89a6.35 6.35 0 0 1-1.953-1.843q-.797-1.155-.797-2.766-.001-4.201 5.969-4.203c1.039 0 2.226.164 3.562.484q.516.158.516.344-.002 1.02-.078 2.672-1.144-1.42-1.954-1.86c-.53-.3-1.257-.453-2.171-.453q-1.252 0-2.094.61-.844.597-.844 1.78M86.393 76l2.734-.75v5.578h3.219q.358.001.36.266-.002.55-.907.844-.91.298-2 .297h-.672v12.03c0 .794.117 1.392.36 1.798q.356.61 1.406.61.513.002 1.297-.313c.52-.22.89-.43 1.109-.64l-.172 1.687q-.034.313-1.187.921-1.16.61-2.172.61-3.533 0-3.532-4.078V82.235H84.58v-1.25l1.656-.157Zm30.749 22.313h-5.266q.874-1.326.875-5.14V75.25h-5.219c-1.105 0-2.031.29-2.781.86l.781-2.813h19.719c-.523 1.305-2.074 1.953-4.656 1.953h-4.313v17.922q-.001 3.816.86 5.14m17.453-8.077v-6.75c0-.782-.055-1.352-.156-1.72q-.159-.543-.704-.937l3.75-.64V94.39q-.002 3.141.829 3.922l-3.688.234v-1.375q0-.623-.187-.625-.047 0-.657.61t-1.812 1.187q-1.19.593-2.672.594-2.079-.002-3.438-1.375c-.898-.914-1.343-2.207-1.343-3.875v-10.36c0-.78-.055-1.351-.157-1.718q-.156-.546-.718-.938.357-.047 1.125-.187c.507-.094.941-.164 1.297-.22a6 6 0 0 1 .765-.077q.576.001.578.875v10.5q-.001 1.111.11 1.906.124.797.453 1.64.34.846 1.062 1.282.734.438 1.875.437 1.25 0 2.047-.609.811-.608 1.14-1.75.34-1.137.423-2.016.077-.89.078-2.218m7.643-1.764V75.406q0-2.937-1.297-3.922l4.204-.625v12.234q0 .204.187.203.075 0 .797-.765.733-.762 2-1.547 1.278-.797 2.703-.797 1.688 0 2.953.828a5.7 5.7 0 0 1 1.985 2.203q.702 1.378 1.03 2.89c.227 1 .345 2.04.345 3.11 0 2.824-.696 5.152-2.079 6.984q-2.078 2.736-6.203 2.735-1.252-.001-3.297-.313-2.031-.313-3.484-.312.154-4.36.156-9.844m11.766 1.483c0-1.925-.383-3.628-1.14-5.109q-1.145-2.217-3.407-2.219-2.051.001-3.187 1.625-1.125 1.629-1.125 4.453v3.016q-.001 1.376.109 2.266a6.8 6.8 0 0 0 .516 1.78 2.6 2.6 0 0 0 1.234 1.345q.841.421 2.14.422 1.874 0 3.016-1.266 1.138-1.278 1.485-2.844.358-1.576.359-3.469m16.943-2.935h-7.015q-.158 1.5-.157 2.203 0 3.017 1.422 5.078 1.436 2.063 4.297 2.063c.945 0 1.86-.172 2.734-.516q1.313-.515 2.016-1.328v.422q-.002 1.535-1.984 2.765c-1.325.82-2.73 1.235-4.22 1.235q-3.642.001-5.608-2.735-1.956-2.748-1.954-6.64 0-3.997 2.157-6.688 2.154-2.685 6.03-2.687 2.72 0 4.36 1.5 1.655 1.487 1.657 3.531-.001.86-.5 1.281-.487.41-1.125.47-.628.046-2.11.046m-6.781-1.172h4.031q.904.001 1.297-.016.389-.029.86-.156c.32-.094.535-.242.64-.453q.154-.312.156-.875-.002-1.172-.812-2.062c-.531-.602-1.258-.907-2.172-.907q-2.987.001-4 4.47m28.194-11.22v9.14h1.063q3.012.001 5-1.187 1.982-1.2 1.984-4.078c0-1.613-.477-2.687-1.422-3.218-.937-.54-2.336-.813-4.187-.813-.47 0-1.282.055-2.438.156m-3.53 13.845V78.422c0-2.531-.29-4.238-.86-5.125q1.718 0 5.204-.187 3.499-.201 5.234-.203 2.496 0 4.172 1.171 1.67 1.173 1.672 3.563 0 2.314-1.485 3.75-1.471 1.44-4.015 2.484v.078q3.217.72 5 2.172c1.195.961 1.797 2.407 1.797 4.344 0 5.336-3.352 8-10.047 8q-1.33 0-3.985-.078a136 136 0 0 0-3.984-.078q1.296-2.778 1.297-9.844m3.531-3.297v6.203q0 3.645.375 4.594.375.938 2.25.938 6.47 0 6.469-5.766-.001-1.92-.64-3.172a3.84 3.84 0 0 0-1.923-1.828 9.5 9.5 0 0 0-2.593-.766q-1.314-.201-3.266-.203Zm19.728 8.781c0 .918.273 1.618.828 2.094q.827.703 2.187.703c1.125 0 1.992-.425 2.61-1.28q.92-1.28.922-3.08v-3.968l-2.11 1.063q-2.55 1.265-3.5 2.11-.937.844-.937 2.358m10.547 4.36-3.532.234a50 50 0 0 1-.234-1.234q-.112-.686-.172-.938-.065-.264-.219-.265-.111.001-.234.125-.657.985-1.063 1.437-.392.44-1.312.844-.926.422-2.203.422-2.128 0-3.5-1.125-1.376-1.138-1.375-3.219 0-.826.375-1.578.375-.749.844-1.234c.312-.32.769-.672 1.375-1.047a16 16 0 0 1 1.453-.844q.543-.282 1.609-.75 1.06-.469 1.406-.625 1.888-.903 2.235-1.297.546-.62.547-2.39 0-3.453-3.047-3.454-1.267.001-1.953.594-.691.58-.86 1.281a3.4 3.4 0 0 1-.64 1.297c-.313.399-.747.594-1.297.594q-1.454.001-1.453-1.375c0-1.207.71-2.102 2.14-2.688q2.138-.89 4.844-.89c3.445 0 5.172 1.062 5.172 3.187v10.188q0 .158.015.734.03.564.047.781c.008.149.035.375.078.688q.06.47.141.734l.188.625q.123.361.28.64c.102.18.22.36.345.548m3.103-9.843V75.406q-.001-2.937-1.297-3.922l4.203-.625v12.234q0 .204.188.203.075 0 .797-.765.733-.762 2-1.547 1.277-.797 2.703-.797 1.687 0 2.953.828a5.7 5.7 0 0 1 1.984 2.203q.704 1.378 1.031 2.89c.227 1 .344 2.04.344 3.11q-.002 4.236-2.078 6.984-2.08 2.736-6.203 2.735-1.253-.001-3.297-.313-2.032-.313-3.484-.312c.101-2.906.156-6.188.156-9.844m11.766 1.483c0-1.925-.383-3.628-1.141-5.109q-1.144-2.217-3.406-2.219-2.052.001-3.188 1.625-1.125 1.629-1.125 4.453v3.016q-.001 1.376.11 2.266a6.8 6.8 0 0 0 .515 1.78 2.6 2.6 0 0 0 1.235 1.345q.841.421 2.14.422 1.874 0 3.016-1.266 1.138-1.278 1.484-2.844.358-1.576.36-3.469m0 0"/><g clip-path="url(#X)"><path fill="#fff" d="M253.15 80.828h3.813c-.53.938-1.07 2.086-1.609 3.438l-5.531 14.172q-.47 1.124-.969 2.219-.485 1.108-1.516 2.843-1.018 1.748-2.078 3.016a10.3 10.3 0 0 1-2.562 2.219c-1 .632-2.008.953-3.032.953q-.701-.001-1.39-.125a3.6 3.6 0 0 1-1.36-.547c-.445-.281-.671-.664-.671-1.14q0-.704.562-.704c.156 0 .477.008.953.031q.72.047 1.078.047 2.127-.002 3.282-.297c.77-.187 1.343-.445 1.718-.765q.563-.471 1.313-1.563 2.31-3.3 2.312-6.547 0-1.53-.422-2.906l-1.734-5.844q-2.003-6.824-3.375-8.5c1.57-.164 2.54-.25 2.906-.25q.468.001.688.266.217.253.406.875l3.375 11.5q.358 1.172.547 1.172.153 0 .594-1.172l2-6.234q1.139-3.422 1.14-4.75-.002-.704-.437-1.407m0 0"/></g><path fill="#fff" d="m287.82 72.985-.156 4.937h-.109q-.598-1.06-1.172-1.703-.563-.655-1.922-1.234-1.346-.593-3.219-.594-2.953.001-4.953 1.531-2.003 1.536-2.828 3.844-.813 2.314-.812 5.25c0 3.219.82 5.851 2.468 7.89q2.466 3.047 7.094 3.047c2.875 0 5.14-.898 6.797-2.703v.235q0 1.69-2.422 3.578-2.407 1.875-6.531 1.875-5.25.002-8.39-3.64-3.142-3.657-3.094-9.188 0-6.106 3.39-9.782 3.388-3.67 9.313-3.671 1.09 0 3.125.171a46 46 0 0 0 3.422.157m14.554 14.031h-7.015q-.158 1.5-.157 2.203 0 3.017 1.422 5.078 1.436 2.063 4.297 2.063c.945 0 1.86-.172 2.735-.516q1.312-.515 2.015-1.328v.422q-.002 1.535-1.984 2.765c-1.324.82-2.73 1.235-4.219 1.235-2.43 0-4.297-.91-5.61-2.735q-1.954-2.748-1.952-6.64 0-3.997 2.156-6.688 2.154-2.685 6.031-2.687 2.72 0 4.36 1.5c1.101.992 1.656 2.168 1.656 3.531q-.001.86-.5 1.281-.488.41-1.125.47-.627.046-2.11.046m-6.781-1.172h4.031q.904.001 1.297-.016.389-.029.86-.156c.32-.094.535-.242.64-.453q.154-.312.156-.875-.002-1.172-.812-2.062c-.531-.602-1.258-.907-2.172-.907q-2.987.001-4 4.47m13.255-5.017 3.64-.25v1.375q0 .626.235.625c.05 0 .3-.195.75-.593.445-.407 1.066-.805 1.86-1.203a5.66 5.66 0 0 1 2.53-.594q4.782 0 4.782 5.11v8.78c0 2.094.21 3.508.64 4.235h-3.53v-10.75c0-.727-.044-1.36-.126-1.89a7 7 0 0 0-.453-1.657q-.33-.844-1.062-1.266-.722-.435-1.86-.437-3.688.002-3.687 5.453v6.312q-.001 3.143.718 4.235h-4.328q.717-1.092.719-4.235V84.75q0-3.138-.828-3.922M328.227 76l2.734-.75v5.578h3.219q.359.001.36.266c0 .367-.305.648-.907.844q-.909.298-2 .297h-.672v12.03c0 .794.117 1.392.36 1.798q.357.61 1.406.61c.344 0 .773-.102 1.297-.313.52-.22.89-.43 1.109-.64l-.172 1.687q-.034.313-1.187.921-1.16.61-2.172.61-3.532 0-3.531-4.078V82.235h-1.657v-1.25l1.657-.157Zm10.856 18.032v-6.938q0-1.842-.047-2.781-.034-.937-.265-2.031-.234-1.109-.703-1.5a53 53 0 0 0 1.953-.11 28 28 0 0 1 1.343-.094c.258 0 .407.329.438.985q.06.984.266.984.046.001.515-.578.47-.59 1.36-1.187.902-.593 1.921-.594 2.17 0 2.172 1.5-.001 1.299-1.375 1.297-.362 0-1.172-.063-.796-.06-1.296-.062-1.349 0-1.782.78-.421.785-.422 2.313v8.079c0 2.093.235 3.523.704 4.28h-4.313c.469-.757.703-2.187.703-4.28m20.711-7.016h-7.015q-.158 1.5-.157 2.203 0 3.017 1.422 5.078 1.436 2.063 4.297 2.063c.945 0 1.86-.172 2.734-.516q1.313-.515 2.016-1.328v.422q-.002 1.535-1.984 2.765c-1.325.82-2.73 1.235-4.219 1.235-2.43 0-4.297-.91-5.61-2.735q-1.954-2.748-1.953-6.64 0-3.997 2.157-6.688 2.154-2.685 6.031-2.687 2.719 0 4.36 1.5c1.1.992 1.656 2.168 1.656 3.531q-.001.86-.5 1.281-.488.41-1.125.47-.627.046-2.11.046m-6.781-1.172h4.031q.904.001 1.297-.016.389-.029.86-.156c.32-.094.535-.242.64-.453q.154-.312.156-.875-.002-1.172-.812-2.062c-.531-.602-1.258-.907-2.172-.907q-2.987.001-4 4.47m0 0"/></g><path fill="none" stroke="#fff" stroke-width="1.498" d="m168.742 124.195 356.793-.215"/></svg>